<?xml version="1.0" encoding="UTF-8"?>
<svg id="SVGDoc" width="63" height="54" xmlns="http://www.w3.org/2000/svg" version="1.1" xmlns:xlink="http://www.w3.org/1999/xlink" xmlns:avocode="https://avocode.com/" viewBox="0 0 63 54"><defs></defs><desc>Generated with Avocode.</desc><g><g><title>Shape 1</title><path d="M62.99989,50.79517v2.18165c0,0.56493 -0.45685,1.02293 -1.02058,1.02293h-23.94814c-0.56362,0 -1.02047,-0.458 -1.02047,-1.02293v-2.18165c0,-1.76683 1.4344,-3.20438 3.19759,-3.20438h1.15654v-1.15912c0,-1.76703 1.43452,-3.20438 3.19771,-3.20438h10.88551c1.76319,0 3.19759,1.43735 3.19759,3.20438v1.15912h1.15665c1.76319,0 3.19759,1.43755 3.19759,3.20438zM43.40588,47.59079h13.1987v-1.15912c0,-0.63898 -0.51876,-1.15892 -1.15654,-1.15892h-10.88551c-0.63778,0 -1.15665,0.51994 -1.15665,1.15892zM60.95883,50.79517c0,-0.63898 -0.51876,-1.15892 -1.15654,-1.15892h-19.594c-0.63778,0 -1.15654,0.51994 -1.15654,1.15892v1.15912h21.90708zM36.68534,23.20183c-0.18734,0.05367 -0.38292,0.08272 -0.58319,0.08272c-0.56328,0 -1.09291,-0.22012 -1.49139,-0.61921l-0.2734,-0.27399l-2.1159,2.12011c-0.62336,0.62465 -1.4423,0.93698 -2.26101,0.93698c-0.06798,0 -0.13584,-0.00504 -0.2037,-0.00948l-24.29821,24.34961c-0.60379,0.60488 -1.40694,0.93839 -2.26101,0.93839c-0.85419,0 -1.65722,-0.33351 -2.26101,-0.93839c-0.6039,-0.60529 -0.93658,-1.40971 -0.93658,-2.26599c0,-0.85607 0.33268,-1.6607 0.93658,-2.26578l24.29821,-24.34961c-0.05608,-0.88735 0.25028,-1.79346 0.92537,-2.46997l2.11578,-2.12052l-0.27351,-0.27379c-0.39837,-0.39929 -0.61775,-0.92972 -0.61775,-1.49465c0,-0.20055 0.02895,-0.39687 0.08251,-0.5843l-2.36641,-2.37151l-0.04818,0.04802c-0.62336,0.62486 -1.44218,0.93718 -2.26112,0.93718c-0.81882,0 -1.63765,-0.31213 -2.26101,-0.93718c-0.6039,-0.60488 -0.93658,-1.40991 -0.93658,-2.26578c0,-0.85567 0.33268,-1.6607 0.93658,-2.26599l6.15761,-6.17068c0.6039,-0.60508 1.40705,-0.93839 2.26112,-0.93839c0.85407,0 1.65722,0.33331 2.26101,0.93839c0.6039,0.60529 0.93658,1.41011 0.93658,2.26599c0,0.85587 -0.33268,1.6605 -0.93658,2.26599l-0.04795,0.04802l2.36721,2.37231c0.71308,-0.20438 1.51314,-0.02643 2.07378,0.53527l6.60873,6.62283c0.56053,0.56191 0.73814,1.36351 0.53444,2.07815l2.3671,2.37231l0.04807,-0.04842c0.6039,-0.60508 1.40694,-0.93839 2.26101,-0.93839c0.85407,0 1.65722,0.33331 2.26101,0.93839c0.60402,0.60508 0.9367,1.41011 0.9367,2.26599c0,0.85587 -0.33268,1.6605 -0.9367,2.26578l-6.15772,6.17068c-0.60402,0.60508 -1.40694,0.93839 -2.26112,0.93839c-0.85407,0 -1.6571,-0.33331 -2.26101,-0.93839c-1.24683,-1.24931 -1.24683,-3.28206 0,-4.53157l0.04818,-0.04842zM46.60485,20.8967l-6.15784,6.17108c-0.45101,0.45154 -0.45101,1.18717 0,1.63871c0.4509,0.45215 1.18458,0.45215 1.6357,0l6.15772,-6.17068c0.21858,-0.21891 0.33886,-0.50985 0.33886,-0.81935c0,-0.30991 -0.12051,-0.60085 -0.33886,-0.81976c-0.22545,-0.22597 -0.52162,-0.33876 -0.81791,-0.33876c-0.29629,0 -0.59235,0.11278 -0.81768,0.33876zM43.67024,20.94493l-2.17987,-2.18427l-3.17528,3.18158l2.1801,2.18468zM23.60932,10.19446l6.15772,-6.17108c0.4509,-0.45174 0.4509,-1.18696 0,-1.63911c-0.21835,-0.21891 -0.5088,-0.33956 -0.81779,-0.33956c-0.30899,0 -0.59956,0.12065 -0.81791,0.33956l-6.15772,6.17088c-0.4509,0.45174 -0.4509,1.18717 0,1.63931c0.45101,0.45154 1.18469,0.45154 1.6357,0zM26.54382,10.14603l2.17999,2.18468l3.17516,-3.18198l-2.17999,-2.18468zM27.74991,24.55727c-0.01659,-0.01574 -0.03445,-0.02966 -0.05058,-0.0458l-1.53934,-1.54267c-0.01637,-0.01634 -0.02998,-0.0341 -0.04566,-0.05044l-23.73459,23.78488c-0.21858,0.21851 -0.33886,0.50965 -0.33886,0.81935c0,0.3095 0.12051,0.60064 0.33886,0.81956c0.21835,0.21891 0.5088,0.33977 0.81779,0.33977c0.30899,0 0.59933,-0.12086 0.81779,-0.33977zM32.89414,20.94493l-3.17516,-3.18198l-2.11567,2.12031c-0.45101,0.45215 -0.45101,1.18737 0,1.63931l1.53934,1.54267c0.45101,0.45174 1.18469,0.45174 1.63559,0zM36.05397,21.21932c0.00504,0.00464 0.02003,0.01957 0.04818,0.01957c0.02815,0 0.04326,-0.01493 0.04818,-0.01957l4.61826,-4.62821c0.02655,-0.02643 0.02655,-0.07001 0,-0.09664l-6.60862,-6.62263c-0.01328,-0.01311 -0.03067,-0.01977 -0.04807,-0.01977c-0.0174,0 -0.0349,0.00666 -0.04818,0.01977l-4.61838,4.62841c-0.00492,0.00484 -0.0198,0.01997 -0.0198,0.04802c0,0.02845 0.01488,0.04358 0.0198,0.04802z" fill="#ffc222" fill-opacity="1"></path></g></g></svg>