<?xml version="1.0" encoding="UTF-8"?>
<svg id="SVGDoc" width="57" height="54" xmlns="http://www.w3.org/2000/svg" version="1.1" xmlns:xlink="http://www.w3.org/1999/xlink" xmlns:avocode="https://avocode.com/" viewBox="0 0 57 54"><defs></defs><desc>Generated with Avocode.</desc><g><g><title>Shape 1</title><path d="M51.09066,27.18097v17.09749h3.0162c0.50983,0 0.92331,0.41321 0.92331,0.92306v3.01472h1.04645c0.50995,0 0.92331,0.41301 0.92331,0.92266v3.93778c0,0.50965 -0.41336,0.92306 -0.92331,0.92306h-55.15331c-0.50995,0 -0.92342,-0.41341 -0.92342,-0.92306v-3.93778c0,-0.50965 0.41348,-0.92266 0.92342,-0.92266h1.04645v-3.01472c0,-0.50985 0.41336,-0.92306 0.92331,-0.92306h3.0162v-17.09749c-0.58662,-0.32544 -0.98499,-0.9507 -0.98499,-1.66776v-1.04593h-2.03121c-0.50995,0 -0.92331,-0.41301 -0.92331,-0.92286v-3.01472h-1.04645c-0.50995,0 -0.92342,-0.41301 -0.92342,-0.92306v-2.95298c0,-0.33129 0.17761,-0.63696 0.46532,-0.8014l27.5766,-15.75053c0.28381,-0.16222 0.6324,-0.16222 0.91621,0l27.57671,15.75053c0.2877,0.16444 0.4652,0.47031 0.4652,0.8014v2.95298c0,0.51005 -0.41336,0.92306 -0.92331,0.92306h-1.04645v3.01472c0,0.50985 -0.41348,0.92286 -0.92331,0.92286h-2.03133v1.04593c0,0.71706 -0.39825,1.34232 -0.98488,1.66776zM50.22892,24.46728h-4.06265v1.04593c0,0.0339 0.02758,0.06154 0.06157,0.06154h3.93951c0.03387,0 0.06157,-0.02764 0.06157,-0.06154zM45.30453,44.27846v-17.09749c-0.58662,-0.32544 -0.98499,-0.9507 -0.98499,-1.66776v-1.04593h-2.0929v1.04593c0,0.71706 -0.39814,1.34232 -0.98476,1.66776v17.09749zM39.39514,44.27846v-16.858h-2.0929v16.858zM35.45563,44.27846v-17.09749c-0.58662,-0.32544 -0.98488,-0.9507 -0.98488,-1.66776v-1.04593h-2.0929v1.04593c0,0.71706 -0.39825,1.34232 -0.98488,1.66776v17.09749zM29.54636,44.27846v-16.858h-2.0929v16.858zM25.60684,44.27846v-17.09749c-0.58662,-0.32544 -0.98488,-0.9507 -0.98488,-1.66776v-1.04593h-2.0929v1.04593c0,0.71706 -0.39825,1.34232 -0.98488,1.66776v17.09749zM19.69757,44.27846v-16.858h-2.0929v16.858zM15.75806,44.27846v-17.09749c-0.58662,-0.32544 -0.98488,-0.9507 -0.98488,-1.66776v-1.04593h-2.0929v1.04593c0,0.71706 -0.39825,1.34232 -0.98488,1.66776v17.09749zM16.6198,24.46728v1.04593c0,0.0339 0.02758,0.06154 0.06157,0.06154h3.93951c0.03399,0 0.06157,-0.02764 0.06157,-0.06154v-1.04593zM26.46858,24.46728v1.04593c0,0.0339 0.02758,0.06154 0.06157,0.06154h3.93951c0.03399,0 0.06157,-0.02764 0.06157,-0.06154v-1.04593zM36.31737,24.46728v1.04593c0,0.0339 0.02769,0.06154 0.06157,0.06154h3.93963c0.03387,0 0.06145,-0.02764 0.06145,-0.06154v-1.04593zM1.84662,18.68398h53.30669v-1.49505l-26.6534,-15.22272l-26.65329,15.22272zM3.81638,22.62156h49.36718v-2.09187h-49.36718zM6.77101,24.46728v1.04593c0,0.0339 0.02758,0.06154 0.06157,0.06154h3.93951c0.03399,0 0.06157,-0.02764 0.06157,-0.06154v-1.04593zM7.75589,44.27846h2.0929v-16.858h-2.0929zM55.15331,50.06176h-53.30669v2.09227h53.30669zM53.18356,46.12438h-49.36718v2.09187h49.36718zM49.24393,44.27846v-16.858h-2.09278v16.858z" fill="#ffc222" fill-opacity="1"></path></g></g></svg>