<?xml version="1.0" encoding="UTF-8"?>
<svg id="SVGDoc" width="47" height="44" xmlns="http://www.w3.org/2000/svg" version="1.1" xmlns:xlink="http://www.w3.org/1999/xlink" xmlns:avocode="https://avocode.com/" viewBox="0 0 47 44"><defs></defs><desc>Generated with Avocode.</desc><g><g><title>Shape 1</title><path d="M46.99986,12.42988v27.46098c0,2.26558 -1.79878,4.10868 -4.00967,4.10868h-38.98064c-2.21088,0 -4.00967,-1.84309 -4.00967,-4.10868v-27.46098c0,-2.26538 1.79878,-4.10888 4.00967,-4.10888h11.42017v-2.39088c-0.6657,-0.23082 -1.22692,-0.75822 -1.48315,-1.48658c-0.44563,-1.26848 0.19867,-2.67153 1.436,-3.12832c2.33116,-0.86072 5.13794,-1.31549 8.11729,-1.31549c2.97935,0 5.78625,0.45477 8.11729,1.31549c1.23734,0.45679 1.88152,1.85984 1.43612,3.12811c-0.25074,0.71262 -0.80692,1.25173 -1.48315,1.48678v2.39088h11.42006c2.21088,0 4.00967,1.8435 4.00967,4.10888zM15.37915,3.91473c0.16125,0.45881 0.65655,0.69729 1.10424,0.53245c1.95362,-0.7217 4.44534,-1.11897 7.01649,-1.11897c2.57114,0 5.06287,0.39727 7.0166,1.11897c0.09441,0.0347 0.19283,0.05246 0.29228,0.05246c0.36255,0 0.68882,-0.23505 0.81196,-0.58531c0.16113,-0.4582 -0.07198,-0.96583 -0.51956,-1.13108c-2.16751,-0.80039 -4.79588,-1.22328 -7.60128,-1.22328c-2.8054,0 -5.43377,0.42289 -7.60105,1.22328c-0.44781,0.16524 -0.68081,0.67288 -0.51968,1.13148zM16.95237,8.321h13.09502v-2.39088c-0.01568,-0.00545 -0.03147,-0.00928 -0.04704,-0.01513c-1.79237,-0.66198 -4.10099,-1.02656 -6.50047,-1.02656c-2.39948,0 -4.70798,0.36458 -6.50024,1.02656c-0.01579,0.00565 -0.03147,0.01049 -0.04726,0.01614zM1.52253,19.91908c0,5.07612 4.03015,9.20598 8.98384,9.20598h9.79591v-0.88432c0,-1.34797 1.07014,-2.44434 2.38552,-2.44434h1.62426c1.31538,0 2.38541,1.09637 2.38541,2.44434v0.88432h9.79591c4.95369,0 8.98384,-4.12986 8.98384,-9.20598v-7.48919c0,-1.40507 -1.1158,-2.54825 -2.48703,-2.54825h-38.98064c-1.37123,0 -2.48703,1.14318 -2.48703,2.54825zM25.17484,28.24074c0,-0.48746 -0.38704,-0.88412 -0.86277,-0.88412h-1.62426c-0.47585,0 -0.86288,0.39666 -0.86288,0.88412v1.66433c0,0.48766 0.38704,0.88392 0.86288,0.88392h1.62426c0.47573,0 0.86277,-0.39626 0.86277,-0.88392zM21.82492,33.23353c0,0.48766 0.38704,0.88412 0.86288,0.88412h1.62426c0.47573,0 0.86277,-0.39646 0.86277,-0.88412v-1.04997c-0.26779,0.10653 -0.55859,0.16585 -0.86277,0.16585h-1.62426c-0.30418,0 -0.59509,-0.05932 -0.86288,-0.16585zM45.47723,25.49658c-1.84456,3.10814 -5.18154,5.1885 -8.98384,5.1885h-9.79591v2.54845c0,1.34777 -1.07002,2.44475 -2.38541,2.44475h-1.62426c-1.31538,0 -2.38552,-1.09698 -2.38552,-2.44475v-2.54845h-9.79591c-3.80219,0 -7.13917,-2.08037 -8.98384,-5.1885v14.39429c0,1.40527 1.1158,2.54845 2.48703,2.54845h38.98064c1.37123,0 2.48703,-1.14318 2.48703,-2.54845z" fill="#ffc222" fill-opacity="1"></path></g></g></svg>